<svg width="800" height="800" xmlns="http://www.w3.org/2000/svg">
 <g>
  <title>Layer 1</title>
  <rect id="svg_1" height="820" width="839" y="-6" x="-5" stroke-width="0" stroke="#000" fill="#aab4ff"/>
  <ellipse id="svg_6" cy="292" cx="734" opacity="NaN" stroke="#000" fill="#fff"/>
  <ellipse id="svg_7" cy="293" cx="759" opacity="NaN" stroke="#fff" fill="#000"/>
  <rect id="svg_8" height="0" width="0" y="339" x="747" opacity="NaN" stroke="#fff" fill="#000"/>
  <rect id="svg_9" height="0" width="0" y="489" x="714" opacity="NaN" stroke="#fff" fill="#000"/>
  <rect id="svg_10" height="0" width="0" y="489" x="714" opacity="NaN" stroke="#fff" fill="#000"/>
  <ellipse id="svg_2" cy="425.56344" cx="787.73623" opacity="NaN" fill="#fff" stroke="#000"/>
  <ellipse id="svg_3" cy="365.63223" cx="868.72435" opacity="NaN" fill="#fff" stroke="#000"/>
  <ellipse id="svg_4" cy="441.76106" cx="769.91884" opacity="NaN" fill="#fff" stroke="#000"/>
  <ellipse id="svg_5" cy="566.48277" cx="789.35599" opacity="NaN" fill="#fff" stroke="#000"/>
  <path id="svg_11" d="m765.05955,592.39897" opacity="NaN" fill="#000" stroke="#fff"/>
  <path fill="#afafff" stroke-width="0" opacity="NaN" d="m57.22336,187.45836" id="svg_13" stroke="#000"/>
  <path fill="#eae1c2" stroke-width="0" opacity="NaN" d="m638.71808,401.267" id="svg_15" stroke="#000"/>
  <path fill="#e5dfc7" stroke-width="0" d="m-9.1869,192.31764c25.9162,77.7486 29.15572,116.6229 53.45216,129.581c24.29644,12.9581 0,79.36836 -3.23952,95.56599c-3.23952,16.19762 -34.01501,40.49406 -40.49406,50.21264c-6.47905,9.71857 16.19762,32.39525 -14.57786,58.31145c-30.77549,25.9162 -72.88931,56.69169 -82.60789,-63.17074c-9.71857,-119.86242 61.55097,-348.24893 87.46717,-270.50033l0,-0.00001z" id="svg_16" stroke="#000"/>
  <path fill="#e5dfc7" stroke-width="0" d="m128.49291,95.1319c29.15572,12.9581 68.03002,56.69169 76.12884,68.03002c8.09881,11.33834 11.33834,69.64979 14.57786,92.32646c3.23952,22.67667 -12.9581,85.84741 8.09881,110.14385c21.05691,24.29644 21.05691,27.53596 32.39525,27.53596c11.33834,0 8.09881,3.23952 19.43715,3.23952c11.33834,0 37.25454,-4.85929 45.35335,3.23952c8.09881,8.09881 22.67667,-1.61976 34.01501,-35.63477c11.33834,-34.01501 9.71857,-46.97311 25.9162,-46.97311c16.19762,0 22.67667,14.57786 30.77549,-6.47905c8.09881,-21.05691 4.85929,-46.97311 0,-64.7905c-4.85929,-17.81739 -21.05691,-22.67667 -8.09881,-37.25454c12.9581,-14.57786 11.33834,-16.19762 24.29644,-34.01501c12.9581,-17.81739 16.19762,-9.71857 27.53596,-38.8743c11.33834,-29.15572 8.09881,-46.97311 11.33834,-58.31145c3.23952,-11.33834 17.81739,-12.9581 29.15572,-27.53596c11.33834,-14.57786 40.49406,-3.23952 6.47905,-32.39525c-34.01501,-29.15572 -63.17074,-48.59287 -82.60789,-48.59287c-19.43715,0 -29.15572,-3.23952 -56.69169,-3.23952c-27.53596,0 -76.12884,-3.23952 -98.80551,0c-22.67667,3.23952 -89.08694,-3.23952 -92.32646,22.67667c-3.23952,25.9162 -77.7486,69.64979 -82.60789,76.12884c-4.85929,6.47905 6.47905,17.81739 35.63477,30.77549l0.00001,0z" id="svg_17" stroke="#000"/>
  <path fill="#e5dfc7" stroke-width="0" d="m277.51105,822.40524c-4.85929,-22.67667 3.23952,-56.69169 8.09881,-59.93121c4.85929,-3.23952 14.57786,1.61976 25.9162,-25.9162c11.33834,-27.53596 -4.85929,-64.7905 19.43715,-72.88931c24.29644,-8.09881 56.69169,-14.57786 77.7486,-24.29644c21.05691,-9.71857 61.55097,-22.67667 66.41026,-42.11382c4.85929,-19.43715 0,-22.67667 16.19762,-27.53596c16.19762,-4.85929 53.45216,-22.67667 66.41026,-27.53596c12.9581,-4.85929 77.7486,-93.94622 85.84741,-93.94622c8.09881,0 25.9162,14.57786 40.49406,0c14.57786,-14.57786 29.15572,-35.63477 27.53596,-53.45216c-1.61976,-17.81739 3.23952,-22.67667 22.67667,-17.81739c19.43715,4.85929 34.01501,12.9581 43.73359,16.19762c9.71857,3.23952 14.57786,27.53596 30.77549,35.63477c16.19762,8.09881 42.11382,-25.9162 32.39525,29.15572c-9.71857,55.07192 -21.05691,56.69169 -30.77549,92.32646c-9.71857,35.63477 -8.09881,61.55097 -8.09881,77.7486c0,16.19762 -17.81739,24.29644 -69.64979,61.55097c-51.8324,37.25454 -71.26955,59.93121 -87.46717,76.12884c-16.19762,16.19762 -6.47905,32.39525 -61.55097,38.8743c-55.07192,6.47905 -118.24266,8.09881 -126.34147,11.33834c-8.09881,3.23952 -174.93435,29.15572 -179.79363,6.47905z" id="svg_19" stroke="#000"/>
 </g>

</svg>